<?xml version="1.0" encoding="UTF-8" standalone="no"?>
<svg
   xmlns:dc="http://purl.org/dc/elements/1.1/"
   xmlns:cc="http://creativecommons.org/ns#"
   xmlns:rdf="http://www.w3.org/1999/02/22-rdf-syntax-ns#"
   xmlns:svg="http://www.w3.org/2000/svg"
   xmlns="http://www.w3.org/2000/svg"
   xmlns:sodipodi="http://sodipodi.sourceforge.net/DTD/sodipodi-0.dtd"
   xmlns:inkscape="http://www.inkscape.org/namespaces/inkscape"
   width="1536pt"
   height="1536pt"
   viewBox="0 0 2048 2048"
   version="1.1"
   id="svg4"
   sodipodi:docname="cogs.svg"
   inkscape:version="0.92.1 r15371"
   inkscape:export-filename="C:\Users\Michael\Documents\Interface builder\assets\img\cogs.png"
   inkscape:export-xdpi="12"
   inkscape:export-ydpi="12">
  <metadata
     id="metadata10">
    <rdf:RDF>
      <cc:Work
         rdf:about="">
        <dc:format>image/svg+xml</dc:format>
        <dc:type
           rdf:resource="http://purl.org/dc/dcmitype/StillImage" />
        <dc:title />
      </cc:Work>
    </rdf:RDF>
  </metadata>
  <defs
     id="defs8" />
  <sodipodi:namedview
     pagecolor="#ffffff"
     bordercolor="#666666"
     borderopacity="1"
     objecttolerance="10"
     gridtolerance="10"
     guidetolerance="10"
     inkscape:pageopacity="0"
     inkscape:pageshadow="2"
     inkscape:window-width="1920"
     inkscape:window-height="1017"
     id="namedview6"
     showgrid="false"
     units="pt"
     inkscape:zoom="0.13169643"
     inkscape:cx="-635.11863"
     inkscape:cy="896"
     inkscape:window-x="-8"
     inkscape:window-y="-8"
     inkscape:window-maximized="1"
     inkscape:current-layer="svg4" />
  <path
     d="m 960,1008 q 0,-106 -75,-181 -75,-75 -181,-75 -106,0 -181,75 -75,75 -75,181 0,106 75,181 75,75 181,75 106,0 181,-75 75,-75 75,-181 z m 768,512 q 0,-52 -38,-90 -38,-38 -90,-38 -52,0 -90,38 -38,38 -38,90 0,53 37.5,90.5 37.5,37.5 90.5,37.5 53,0 90.5,-37.5 37.5,-37.5 37.5,-90.5 z m 0,-1024 q 0,-52 -38,-90 -38,-38 -90,-38 -52,0 -90,38 -38,38 -38,90 0,53 37.5,90.5 37.5,37.5 90.5,37.5 53,0 90.5,-37.5 Q 1728,549 1728,496 Z m -384,421 v 185 q 0,10 -7,19.5 -7,9.5 -16,10.5 l -155,24 q -11,35 -32,76 34,48 90,115 7,11 7,20 0,12 -7,19 -23,30 -82.5,89.5 -59.5,59.5 -78.5,59.5 -11,0 -21,-7 l -115,-90 q -37,19 -77,31 -11,108 -23,155 -7,24 -30,24 H 611 q -11,0 -20,-7.5 -9,-7.5 -10,-17.5 l -23,-153 q -34,-10 -75,-31 l -118,89 q -7,7 -20,7 -11,0 -21,-8 -144,-133 -144,-160 0,-9 7,-19 10,-14 41,-53 31,-39 47,-61 -23,-44 -35,-82 L 88,1128 q -10,-1 -17,-9.5 -7,-8.5 -7,-19.5 V 914 q 0,-10 7,-19.5 7,-9.5 16,-10.5 l 155,-24 q 11,-35 32,-76 -34,-48 -90,-115 -7,-11 -7,-20 0,-12 7,-20 22,-30 82,-89 60,-59 79,-59 11,0 21,7 l 115,90 q 34,-18 77,-32 11,-108 23,-154 7,-24 30,-24 h 186 q 11,0 20,7.5 9,7.5 10,17.5 l 23,153 q 34,10 75,31 l 118,-89 q 8,-7 20,-7 11,0 21,8 144,133 144,160 0,8 -7,19 -12,16 -42,54 -30,38 -45,60 23,48 34,82 l 152,23 q 10,2 17,10.5 7,8.5 7,19.5 z m 640,533 v 140 q 0,16 -149,31 -12,27 -30,52 51,113 51,138 0,4 -4,7 -122,71 -124,71 -8,0 -46,-47 -38,-47 -52,-68 -20,2 -30,2 -10,0 -30,-2 -14,21 -52,68 -38,47 -46,47 -2,0 -124,-71 -4,-3 -4,-7 0,-25 51,-138 -18,-25 -30,-52 -149,-15 -149,-31 v -140 q 0,-16 149,-31 13,-29 30,-52 -51,-113 -51,-138 0,-4 4,-7 4,-2 35,-20 31,-18 59,-34 28,-16 30,-16 8,0 46,46.5 38,46.5 52,67.5 20,-2 30,-2 10,0 30,2 51,-71 92,-112 l 6,-2 q 4,0 124,70 4,3 4,7 0,25 -51,138 17,23 30,52 149,15 149,31 z m 0,-1024 v 140 q 0,16 -149,31 -12,27 -30,52 51,113 51,138 0,4 -4,7 -122,71 -124,71 -8,0 -46,-47 -38,-47 -52,-68 -20,2 -30,2 -10,0 -30,-2 -14,21 -52,68 -38,47 -46,47 -2,0 -124,-71 -4,-3 -4,-7 0,-25 51,-138 -18,-25 -30,-52 -149,-15 -149,-31 V 426 q 0,-16 149,-31 13,-29 30,-52 -51,-113 -51,-138 0,-4 4,-7 4,-2 35,-20 31,-18 59,-34 28,-16 30,-16 8,0 46,46.5 38,46.5 52,67.5 20,-2 30,-2 10,0 30,2 51,-71 92,-112 l 6,-2 q 4,0 124,70 4,3 4,7 0,25 -51,138 17,23 30,52 149,15 149,31 z"
     id="path2"
     style="fill:#272727;fill-opacity:1"
     inkscape:connector-curvature="0" />
</svg>
