<?xml version="1.0" encoding="UTF-8" standalone="no"?>
<svg
   xmlns:dc="http://purl.org/dc/elements/1.1/"
   xmlns:cc="http://creativecommons.org/ns#"
   xmlns:rdf="http://www.w3.org/1999/02/22-rdf-syntax-ns#"
   xmlns:svg="http://www.w3.org/2000/svg"
   xmlns="http://www.w3.org/2000/svg"
   xmlns:sodipodi="http://sodipodi.sourceforge.net/DTD/sodipodi-0.dtd"
   xmlns:inkscape="http://www.inkscape.org/namespaces/inkscape"
   width="1536pt"
   height="1536pt"
   viewBox="0 0 2048 2048"
   version="1.1"
   id="svg4"
   sodipodi:docname="cogs-circle-animated.svg"
   inkscape:version="0.92.1 r15371"
   inkscape:export-filename="C:\Users\Michael\Documents\Interface builder\assets\img\cogs.png"
   inkscape:export-xdpi="12"
   inkscape:export-ydpi="12">
  <metadata
     id="metadata10">
    <rdf:RDF>
      <cc:Work
         rdf:about="">
        <dc:format>image/svg+xml</dc:format>
        <dc:type
           rdf:resource="http://purl.org/dc/dcmitype/StillImage" />
        <dc:title />
      </cc:Work>
    </rdf:RDF>
  </metadata>
  <defs
     id="defs8" />
  <sodipodi:namedview
     pagecolor="#ffffff"
     bordercolor="#666666"
     borderopacity="1"
     objecttolerance="10"
     gridtolerance="10"
     guidetolerance="10"
     inkscape:pageopacity="0"
     inkscape:pageshadow="2"
     inkscape:window-width="1920"
     inkscape:window-height="1017"
     id="namedview6"
     showgrid="false"
     units="pt"
     inkscape:zoom="0.26339286"
     inkscape:cx="-306.46535"
     inkscape:cy="1008.421"
     inkscape:window-x="-8"
     inkscape:window-y="-8"
     inkscape:window-maximized="1"
     inkscape:current-layer="svg4" />
  <g>
  <path
     inkscape:connector-curvature="0"
     style="fill:#272727;fill-opacity:1"
     d="m 1472,1152 c -1.3334,0 -11.3334,5.3333 -30,16 -18.6667,10.6667 -38.3334,22 -59,34 -20.6667,12 -32.3334,18.6667 -35,20 -2.6667,2 -4,4.3333 -4,7 0,16.6667 17,62.6667 51,138 -11.3334,15.3333 -21.3334,32.6667 -30,52 -99.3334,10 -149,20.3333 -149,31 v 140 c 0,10.6667 49.6666,21 149,31 8,18 18,35.3333 30,52 -34,75.3333 -51,121.3333 -51,138 0,2.6667 1.3333,5 4,7 81.3333,47.3333 122.6666,71 124,71 5.3333,0 20.6666,-15.6667 46,-47 25.3333,-31.3333 42.6666,-54 52,-68 13.3333,1.3333 23.3333,2 30,2 6.6666,0 16.6666,-0.6667 30,-2 9.3333,14 26.6666,36.6667 52,68 25.3333,31.3333 40.6666,47 46,47 1.3333,0 42.6666,-23.6667 124,-71 2.6666,-2 4,-4.3333 4,-7 0,-16.6667 -17,-62.6667 -51,-138 12,-16.6667 22,-34 30,-52 99.3333,-10 149,-20.3333 149,-31 v -140 c 0,-10.6667 -49.6667,-21 -149,-31 -8.6667,-19.3333 -18.6667,-36.6667 -30,-52 34,-75.3333 51,-121.3333 51,-138 0,-2.6667 -1.3334,-5 -4,-7 -80,-46.6667 -121.3334,-70 -124,-70 l -6,2 c -27.3334,27.3333 -58,64.6667 -92,112 -13.3334,-1.3333 -23.3334,-2 -30,-2 -6.6667,0 -16.6667,0.6667 -30,2 -9.3334,-14 -26.6667,-36.5 -52,-67.5 -25.3334,-31 -40.6667,-46.5 -46,-46.5 z m 128,240 c 34.6666,0 64.6666,12.6667 90,38 25.3333,25.3333 38,55.3333 38,90 0,35.3333 -12.5,65.5 -37.5,90.5 -25,25 -55.1667,37.5 -90.5,37.5 -35.3334,0 -65.5,-12.5 -90.5,-37.5 -25,-25 -37.5,-55.1667 -37.5,-90.5 0,-34.6667 12.6666,-64.6667 38,-90 25.3333,-25.3333 55.3333,-38 90,-38 z"
     id="path4499" />
	 <animateTransform
	   attributeName="transform"
	   attributeType="XML"
	   type="rotate"
	   values="0 1602 1522; 180 1602 1522; 360 1602 1522"
	   begin="0s"
	   dur="3s"
	   additive="sum"
	   repeatCount="indefinite" />
  </g>
  <g>
  <path
     inkscape:connector-curvature="0"
     style="fill:#272727;fill-opacity:1"
     d="m 611,368 c -15.3334,0 -25.3334,8 -30,24 -8,30.66667 -15.6667,82 -23,154 -28.6667,9.33334 -54.3334,20 -77,32 L 366,488 c -6.6667,-4.66666 -13.6667,-7 -21,-7 -12.6667,0 -39,19.66667 -79,59 -40,39.33334 -67.3334,69 -82,89 -4.6667,5.33334 -7,12 -7,20 0,6 2.3333,12.66667 7,20 37.3333,44.66667 67.3333,83 90,115 -14,27.33334 -24.6667,52.66667 -32,76 L 87,884 c -6,0.66667 -11.3334,4.16667 -16,10.5 -4.6667,6.33334 -7,12.83334 -7,19.5 v 185 c 0,7.3333 2.3333,13.8333 7,19.5 4.6666,5.6667 10.3333,8.8333 17,9.5 l 152,24 c 8,25.3333 19.6666,52.6667 35,82 -10.6667,14.6667 -26.3334,35 -47,61 -20.6667,26 -34.3334,43.6667 -41,53 -4.6667,6.6667 -7,13 -7,19 0,18 48,71.3333 144,160 6.6666,5.3333 13.6666,8 21,8 8.6666,0 15.3333,-2.3333 20,-7 l 118,-89 c 27.3333,14 52.3333,24.3333 75,31 l 23,153 c 0.6666,6.6667 4,12.5 10,17.5 6,5 12.6666,7.5 20,7.5 h 186 c 15.3333,0 25.3333,-8 30,-24 8,-31.3333 15.6666,-83 23,-155 26.6666,-8 52.3333,-18.3333 77,-31 l 115,90 c 6.6666,4.6667 13.6666,7 21,7 12.6666,0 38.8333,-19.8333 78.5,-59.5 39.6666,-39.6667 67.1666,-69.5 82.5,-89.5 4.6666,-4.6667 7,-11 7,-19 0,-6 -2.3334,-12.6667 -7,-20 -37.3334,-44.6667 -67.3334,-83 -90,-115 14,-27.3333 24.6666,-52.6667 32,-76 l 155,-24 c 6,-0.6667 11.3333,-4.1667 16,-10.5 4.6666,-6.3333 7,-12.8333 7,-19.5 V 917 c 0,-7.33333 -2.3334,-13.83333 -7,-19.5 -4.6667,-5.66666 -10.3334,-9.16666 -17,-10.5 l -152,-23 c -7.3334,-22.66666 -18.6667,-50 -34,-82 10,-14.66666 25,-34.66666 45,-60 20,-25.33333 34,-43.33333 42,-54 4.6666,-7.33333 7,-13.66666 7,-19 0,-18 -48,-71.33333 -144,-160 -6.6667,-5.33333 -13.6667,-8 -21,-8 -8,0 -14.6667,2.33334 -20,7 L 925,577 C 897.6666,563 872.6666,552.66667 850,546 L 827,393 c -0.6667,-6.66666 -4,-12.5 -10,-17.5 -6,-5 -12.6667,-7.5 -20,-7.5 z m 93,384 c 70.6666,0 131,25 181,75 50,50 75,110.33334 75,181 0,70.6667 -25,131 -75,181 -50,50 -110.3334,75 -181,75 -70.6667,0 -131,-25 -181,-75 -50,-50 -75,-110.3333 -75,-181 0,-70.66666 25,-131 75,-181 50,-50 110.3333,-75 181,-75 z"
     id="path4501" />
	 <animateTransform
	   attributeName="transform"
	   attributeType="XML"
	   type="rotate"
	   values="0 706 1010; -180 706 1010; -360 706 1010"
	   begin="0s"
	   dur="5s"
	   additive="sum"
	   repeatCount="indefinite" />
  </g>
  <g>
  <path
     inkscape:connector-curvature="0"
     style="fill:#272727;fill-opacity:1"
     d="m 1472,128 c -1.3334,0 -11.3334,5.33334 -30,16 -18.6667,10.66667 -38.3334,22 -59,34 -20.6667,12 -32.3334,18.66667 -35,20 -2.6667,2 -4,4.33334 -4,7 0,16.66667 17,62.66667 51,138 -11.3334,15.33334 -21.3334,32.66667 -30,52 -99.3334,10 -149,20.33334 -149,31 v 140 c 0,10.66667 49.6666,21 149,31 8,18 18,35.33334 30,52 -34,75.33334 -51,121.33334 -51,138 0,2.66667 1.3333,5 4,7 81.3333,47.33334 122.6666,71 124,71 5.3333,0 20.6666,-15.66666 46,-47 25.3333,-31.33333 42.6666,-54 52,-68 13.3333,1.33334 23.3333,2 30,2 6.6666,0 16.6666,-0.66666 30,-2 9.3333,14 26.6666,36.66667 52,68 25.3333,31.33334 40.6666,47 46,47 1.3333,0 42.6666,-23.66666 124,-71 2.6666,-2 4,-4.33333 4,-7 0,-16.66666 -17,-62.66666 -51,-138 12,-16.66666 22,-34 30,-52 99.3333,-10 149,-20.33333 149,-31 V 426 c 0,-10.66666 -49.6667,-21 -149,-31 -8.6667,-19.33333 -18.6667,-36.66666 -30,-52 34,-75.33333 51,-121.33333 51,-138 0,-2.66666 -1.3334,-5 -4,-7 -80,-46.66666 -121.3334,-70 -124,-70 l -6,2 c -27.3334,27.33334 -58,64.66667 -92,112 -13.3334,-1.33333 -23.3334,-2 -30,-2 -6.6667,0 -16.6667,0.66667 -30,2 -9.3334,-14 -26.6667,-36.5 -52,-67.5 -25.3334,-31 -40.6667,-46.5 -46,-46.5 z m 128,240 c 34.6666,0 64.6666,12.66667 90,38 25.3333,25.33334 38,55.33334 38,90 0,35.33334 -12.5,65.5 -37.5,90.5 -25,25 -55.1667,37.5 -90.5,37.5 -35.3334,0 -65.5,-12.5 -90.5,-37.5 -25,-25 -37.5,-55.16666 -37.5,-90.5 0,-34.66666 12.6666,-64.66666 38,-90 25.3333,-25.33333 55.3333,-38 90,-38 z"
     id="path2-3"/>
	 <animateTransform
	   attributeName="transform"
	   attributeType="XML"
	   type="rotate"
	   values="0 1602 498; 180 1602 498; 360 1602 498"
	   begin="0s"
	   dur="3s"
	   additive="sum"
	   repeatCount="indefinite" />
  </g>
</svg>
